#!OML:ASF H:\LiuWeirdWalks\Patient Classification 1\Patient 1\Session 1\male.ASF
:FULLY-SPECIFIED
:DEGREES
984
root 1.62808 18.2046 4.86505 5.70961 4.29486 -6.57879
lowerback 2.25586 2.82181 4.07171
upperback -2.69695 4.03741 2.53503
thorax -3.95398 1.9322 0.116672
lowerneck -14.7691 -1.10556 4.12572
upperneck 23.0167 -1.35476 -4.87611
head 9.64342 -0.812905 -2.56215
rclavicle 1.43249e-014 1.47101e-014
rhumerus -36.4049 -13.3616 -76.5202
rradius 31.4516
rwrist -7.06704
rhand -16.7409 -2.74863
rfingers 7.12502
rthumb 9.48534 -32.5152
lclavicle 1.43249e-014 1.47101e-014
lhumerus -43.7645 -4.80501 83.9825
lradius 42.0503
lwrist 16.0676
lhand -14.3061 -1.83407
lfingers 7.12502
lthumb 11.8339 27.8116
rfemur 14.8458 -4.2471 25.1007
rtibia 17.1967
rfoot 8.8365 -4.72849
rtoes -24.4778
lfemur -23.0631 -0.110967 -16.6628
ltibia 29.5696
lfoot -8.79321 5.46325
ltoes -3.87397
985
root 1.64433 18.2061 4.92041 5.73668 4.18916 -6.47742
lowerback 2.26423 2.784 3.9305
upperback -2.70591 3.9814 2.51789
thorax -3.97719 1.90777 0.179172
lowerneck -14.7564 -1.10529 4.07654
upperneck 23.015 -1.35461 -4.82544
head 9.64148 -0.811504 -2.5359
rclavicle -1.09021e-014 1.19271e-015
rhumerus -36.5448 -13.3289 -76.4906
rradius 31.5293
rwrist -7.1264
rhand -16.7592 -2.82895
rfingers 7.12502
rthumb 9.46767 -32.5963
lclavicle -1.09021e-014 1.19271e-015
lhumerus -43.6623 -4.84297 83.9768
lradius 42.0328
lwrist 16.0683
lhand -14.2693 -1.8853
lfingers 7.12502
lthumb 11.8694 27.7583
rfemur 14.5202 -4.30905 24.8496
rtibia 17.9708
rfoot 9.18335 -4.53653
rtoes -24.1291
lfemur -22.7983 -0.0392246 -16.8184
ltibia 29.4647
lfoot -8.98039 5.50034
ltoes -3.85173
986
root 1.65978 18.2076 4.97497 5.7608 4.07168 -6.38206
lowerback 2.26529 2.75034 3.79344
upperback -2.7071 3.93018 2.49978
thorax -3.98751 1.88589 0.238818
lowerneck -14.7533 -1.10941 4.0116
upperneck 23.0466 -1.36018 -4.75863
head 9.65313 -0.812142 -2.50298
rclavicle -2.18228e-014 -1.49089e-014
rhumerus -36.6897 -13.3149 -76.4591
rradius 31.6268
rwrist -7.17905
rhand -16.7626 -2.91491
rfingers 7.12502
rthumb 9.46445 -32.6824
lclavicle -2.18228e-014 -1.49089e-014
lhumerus -43.5398 -4.88437 83.9683
lradius 41.9981
lwrist 16.0386
lhand -14.2492 -1.9794
lfingers 7.12502
lthumb 11.8888 27.6631
rfemur 14.1639 -4.34701 24.6119
rtibia 18.8038
rfoot 9.5154 -4.34757
rtoes -23.6801
lfemur -22.5336 0.0502896 -16.9668
ltibia 29.3584
lfoot -9.15314 5.53473
ltoes -3.8357
987
root 1.67482 18.209 5.02897 5.77999 3.94321 -6.28193
lowerback 2.26703 2.71859 3.6531
upperback -2.69864 3.88072 2.47663
thorax -3.98781 1.86512 0.295288
lowerneck -14.7705 -1.1127 3.95668
upperneck 23.0757 -1.36672 -4.69712
head 9.66754 -0.813161 -2.47397
rclavicle -9.79636e-015 1.78906e-014
rhumerus -36.8119 -13.3144 -76.4324
rradius 31.7156
rwrist -7.22468
rhand -16.7596 -3.03369
rfingers 7.12502
rthumb 9.46732 -32.801
lclavicle -9.79636e-015 1.78906e-014
lhumerus -43.408 -4.93606 83.9583
lradius 41.9769
lwrist 16.0316
lhand -14.2368 -2.03583
lfingers 7.12502
lthumb 11.9008 27.6059
rfemur 13.779 -4.37277 24.3711
rtibia 19.6997
rfoot 9.83502 -4.15245
rtoes -23.1272
lfemur -22.2657 0.152338 -17.1214
ltibia 29.2529
lfoot -9.31378 5.56846
ltoes -3.82799
988
root 1.6897 18.2104 5.08274 5.79499 3.79783 -6.1794
lowerback 2.25909 2.69378 3.51283
upperback -2.68709 3.83971 2.44971
thorax -3.97881 1.84865 0.348042
lowerneck -14.7761 -1.10421 3.95597
upperneck 23.0785 -1.36011 -4.6783
head 9.67019 -0.808285 -2.46666
rclavicle 6.36111e-015 3.37934e-014
rhumerus -36.9407 -13.3202 -76.4031
rradius 31.8046
rwrist -7.27565
rhand -16.7452 -3.12101
rfingers 7.12502
rthumb 9.48116 -32.8877
lclavicle 6.36111e-015 3.37934e-014
lhumerus -43.2687 -4.99253 83.95
lradius 41.9513
lwrist 16.0361
lhand -14.2385 -2.03587
lfingers 7.12502
lthumb 11.8991 27.606
rfemur 13.3639 -4.38744 24.1258
rtibia 20.6628
rfoot 10.1371 -3.95683
rtoes -22.4644
lfemur -21.9933 0.263851 -17.2804
ltibia 29.1491
lfoot -9.46377 5.61184
ltoes -3.83106
989
root 1.70434 18.2118 5.13554 5.80942 3.63707 -6.08592
lowerback 2.25761 2.67164 3.38373
upperback -2.67405 3.803 2.42148
thorax -3.97095 1.83392 0.392781
lowerneck -14.7656 -1.07677 4.03993
upperneck 22.9969 -1.33272 -4.72864
head 9.6395 -0.794743 -2.4931
rclavicle -9.87711e-016 -2.28602e-014
rhumerus -37.0555 -13.341 -76.3778
rradius 31.8734
rwrist -7.32596
rhand -16.7456 -3.17037
rfingers 7.12502
rthumb 9.48083 -32.9371
lclavicle -9.87711e-016 -2.28602e-014
lhumerus -43.1165 -5.05284 83.9386
lradius 41.925
lwrist 16.0508
lhand -14.2359 -1.97701
lfingers 7.12502
lthumb 11.9017 27.6647
rfemur 12.9071 -4.3909 23.8917
rtibia 21.6957
rfoot 10.4428 -3.77833
rtoes -21.7311
lfemur -21.7241 0.379239 -17.4296
ltibia 29.044
lfoot -9.59776 5.66475
ltoes -3.82178
990
root 1.71933 18.2132 5.18762 5.82656 3.4719 -5.98199
lowerback 2.2582 2.65084 3.25454
upperback -2.66165 3.76794 2.38608
thorax -3.96432 1.81985 0.430019
lowerneck -14.7398 -1.04235 4.16026
upperneck 22.8898 -1.29961 -4.80013
head 9.59675 -0.777841 -2.53153
rclavicle 2.98301e-014 1.23246e-014
rhumerus -37.1658 -13.3604 -76.3553
rradius 31.9356
rwrist -7.3836
rhand -16.7732 -3.21772
rfingers 7.12502
rthumb 9.45421 -32.9857
lclavicle 2.98301e-014 1.23246e-014
lhumerus -42.9591 -5.11955 83.9298
lradius 41.8887
lwrist 16.0702
lhand -14.2472 -1.93519
lfingers 7.12502
lthumb 11.8908 27.7072
rfemur 12.4075 -4.4044 23.6406
rtibia 22.7995
rfoot 10.7538 -3.61666
rtoes -20.9819
lfemur -21.4582 0.480263 -17.5925
ltibia 28.9364
lfoot -9.7188 5.73231
ltoes -3.81877
991
root 1.73436 18.2147 5.23883 5.84593 3.30059 -5.8641
lowerback 2.2685 2.62547 3.10893
upperback -2.64994 3.72654 2.34749
thorax -3.96467 1.80292 0.472946
lowerneck -14.727 -1.0068 4.26257
upperneck 22.8058 -1.26696 -4.84489
head 9.5652 -0.759656 -2.55838
rclavicle -5.36097e-015 1.88845e-014
rhumerus -37.2549 -13.3806 -76.3379
rradius 31.9765
rwrist -7.42899
rhand -16.8261 -3.24739
rfingers 7.12502
rthumb 9.40309 -33.0176
lclavicle -5.36097e-015 1.88845e-014
lhumerus -42.796 -5.17573 83.9166
lradius 41.8544
lwrist 16.0908
lhand -14.2419 -1.82439
lfingers 7.12502
lthumb 11.8959 27.8177
rfemur 11.8641 -4.41606 23.3754
rtibia 23.9679
rfoot 11.0831 -3.4891
rtoes -20.2564
lfemur -21.1951 0.568732 -17.7722
ltibia 28.8252
lfoot -9.82875 5.81362
ltoes -3.82493
992
root 1.74929 18.2162 5.28834 5.87158 3.12077 -5.74661
lowerback 2.29478 2.59834 2.96111
upperback -2.64464 3.6838 2.31032
thorax -3.98088 1.78517 0.517727
lowerneck -14.7537 -0.97651 4.32348
upperneck 22.7863 -1.24266 -4.84353
head 9.56425 -0.7436 -2.56526
rclavicle -2.54258e-014 -2.32578e-014
rhumerus -37.3366 -13.3853 -76.3189
rradius 32.0024
rwrist -7.46823
rhand -16.8831 -3.26995
rfingers 7.12502
rthumb 9.34816 -33.0427
lclavicle -2.54258e-014 -2.32578e-014
lhumerus -42.6281 -5.21374 83.8997
lradius 41.7976
lwrist 16.0745
lhand -14.2488 -1.79598
lfingers 7.12502
lthumb 11.8892 27.8465
rfemur 11.2696 -4.42482 23.1123
rtibia 25.1951
rfoot 11.4537 -3.39773
rtoes -19.5439
lfemur -20.9432 0.644097 -17.9515
ltibia 28.709
lfoot -9.92459 5.9114
ltoes -3.83411
993
root 1.76425 18.2175 5.3368 5.89142 2.9503 -5.6322
lowerback 2.32959 2.56261 2.81763
upperback -2.63235 3.6298 2.27424
thorax -3.99441 1.76176 0.56168
lowerneck -14.8046 -0.941585 4.38059
upperneck 22.7812 -1.21509 -4.82822
head 9.57338 -0.724891 -2.56692
rclavicle 3.18552e-014 1.5704e-014
rhumerus -37.3903 -13.3968 -76.2977
rradius 31.9953
rwrist -7.46995
rhand -16.9215 -3.24913
rfingers 7.12502
rthumb 9.31109 -33.0235
lclavicle 3.18552e-014 1.5704e-014
lhumerus -42.4411 -5.24086 83.8785
lradius 41.7272
lwrist 16.0573
lhand -14.2573 -1.79785
lfingers 7.12502
lthumb 11.881 27.8451
rfemur 10.6436 -4.45288 22.8518
rtibia 26.4721
rfoot 11.8653 -3.31101
rtoes -18.8623
lfemur -20.6877 0.700461 -18.1282
ltibia 28.5874
lfoot -10.0138 6.0152
ltoes -3.83825
994
root 1.7788 18.2188 5.38421 5.91043 2.77635 -5.52138
lowerback 2.36413 2.5247 2.67327
upperback -2.62051 3.57282 2.2401
thorax -4.0083 1.73693 0.608383
lowerneck -14.8814 -0.914713 4.38755
upperneck 22.8462 -1.19969 -4.75584
head 9.61244 -0.709368 -2.54366
rclavicle 1.50517e-014 -1.5704e-014
rhumerus -37.4411 -13.4036 -76.2753
rradius 31.9704
rwrist -7.45182
rhand -16.9394 -3.20518
rfingers 7.12502
rthumb 9.29384 -32.9803
lclavicle 1.50517e-014 -1.5704e-014
lhumerus -42.2452 -5.257 83.8552
lradius 41.6377
lwrist 16.0254
lhand -14.2732 -1.86815
lfingers 7.12502
lthumb 11.8657 27.7756
rfemur 9.98401 -4.48627 22.5959
rtibia 27.7875
rfoot 12.3249 -3.23356
rtoes -18.12
lfemur -20.4329 0.747483 -18.3003
ltibia 28.4603
lfoot -10.0942 6.12919
ltoes -3.83478
995
root 1.79287 18.2202 5.43066 5.92977 2.59506 -5.41429
lowerback 2.39892 2.4896 2.52979
upperback -2.60987 3.51959 2.20577
thorax -4.02333 1.71393 0.654264
lowerneck -14.9667 -0.887087 4.40104
upperneck 22.9206 -1.18624 -4.67942
head 9.65634 -0.69366 -2.52059
rclavicle -6.1499e-014 -1.49089e-014
rhumerus -37.4918 -13.4204 -76.248
rradius 31.9297
rwrist -7.41292
rhand -16.9384 -3.14543
rfingers 7.12502
rthumb 9.2948 -32.9205
lclavicle -6.1499e-014 -1.49089e-014
lhumerus -42.0579 -5.27662 83.8342
lradius 41.5651
lwrist 16.0052
lhand -14.2825 -1.91413
lfingers 7.12502
lthumb 11.8567 27.7302
rfemur 9.29141 -4.52332 22.3447
rtibia 29.1322
rfoot 12.8369 -3.15095
rtoes -17.6306
lfemur -20.1778 0.785459 -18.4675
ltibia 28.3239
lfoot -10.1642 6.2576
ltoes -3.82181
996
root 1.80638 18.2218 5.47657 5.93854 2.40996 -5.3105
lowerback 2.43294 2.45861 2.39066
upperback -2.5973 3.47182 2.17163
thorax -4.03548 1.69356 0.69778
lowerneck -15.0293 -0.873738 4.38275
upperneck 22.9942 -1.19303 -4.56619
head 9.69531 -0.685663 -2.48133
rclavicle 2.00524e-014 5.26779e-015
rhumerus -37.5536 -13.4443 -76.2155
rradius 31.8853
rwrist -7.36485
rhand -16.9334 -3.06005
rfingers 7.12502
rthumb 9.29959 -32.8349
lclavicle 2.00524e-014 5.26779e-015
lhumerus -41.8787 -5.3099 83.8222
lradius 41.5063
lwrist 16.0021
lhand -14.288 -1.94976
lfingers 7.12502
lthumb 11.8514 27.6949
rfemur 8.58198 -4.56329 22.0976
rtibia 30.5036
rfoot 13.3873 -3.05714
rtoes -17.3465
lfemur -19.9054 0.824 -18.6312
ltibia 28.173
lfoot -10.2238 6.39186
ltoes -3.82611
997
root 1.81911 18.2237 5.5214 5.94472 2.21643 -5.20778
lowerback 2.47343 2.42891 2.2421
upperback -2.58832 3.42587 2.14252
thorax -4.05577 1.67439 0.75132
lowerneck -15.0548 -0.864558 4.36554
upperneck 22.9936 -1.20377 -4.4621
head 9.70072 -0.680746 -2.44368
rclavicle -5.95733e-015 -5.06901e-015
rhumerus -37.6251 -13.4577 -76.1797
rradius 31.8363
rwrist -7.31281
rhand -16.9256 -2.92938
rfingers 7.12502
rthumb 9.30716 -32.7039
lclavicle -5.95733e-015 -5.06901e-015
lhumerus -41.709 -5.34235 83.8188
lradius 41.4526
lwrist 15.9978
lhand -14.2829 -1.9399
lfingers 7.12502
lthumb 11.8563 27.7044
rfemur 7.8457 -4.5931 21.8577
rtibia 31.8981
rfoot 13.984 -2.97084
rtoes -17.2921
lfemur -19.6247 0.863801 -18.7917
ltibia 28.0023
lfoot -10.2647 6.53345
ltoes -3.84163
998
root 1.83164 18.2259 5.56584 5.9494 2.01584 -5.09187
lowerback 2.5021 2.40126 2.08246
upperback -2.57323 3.38121 2.10923
thorax -4.06319 1.65627 0.807415
lowerneck -15.0428 -0.855134 4.36773
upperneck 22.9443 -1.21497 -4.3723
head 9.68147 -0.676121 -2.41276
rclavicle 4.07571e-014 2.38542e-014
rhumerus -37.6834 -13.4689 -76.1444
rradius 31.7695
rwrist -7.26064
rhand -16.9059 -2.8188
rfingers 7.12502
rthumb 9.32619 -32.5925
lclavicle 4.07571e-014 2.38542e-014
lhumerus -41.5333 -5.37117 83.8174
lradius 41.3943
lwrist 15.9723
lhand -14.2896 -1.99041
lfingers 7.12502
lthumb 11.8499 27.6543
rfemur 7.08745 -4.62507 21.6014
rtibia 33.3148
rfoot 14.6254 -2.88807
rtoes -17.3528
lfemur -19.3323 0.911448 -18.9685
ltibia 27.8109
lfoot -10.294 6.6754
ltoes -3.88263
